<?xml version="1.0" encoding="utf-8"?>
<!-- Generator: Adobe Illustrator 16.0.0, SVG Export Plug-In . SVG Version: 6.00 Build 0)  -->
<!DOCTYPE svg PUBLIC "-//W3C//DTD SVG 1.1//EN" "http://www.w3.org/Graphics/SVG/1.1/DTD/svg11.dtd">
<svg version="1.1" id="Layer_1" xmlns="http://www.w3.org/2000/svg" xmlns:xlink="http://www.w3.org/1999/xlink" x="0px" y="0px"
	 width="82.619px" height="90px" viewBox="0 0 82.619 90" enable-background="new 0 0 82.619 90" xml:space="preserve">
<g>
	<path fill="#96BF48" d="M51.401,89.812C33.885,87.134,17.113,83.659,0,80.191C2.374,61.84,4.686,43.952,7.051,25.642
		c3.432-1.209,6.903-2.431,10.643-3.751c0.787-2.301,1.499-4.817,2.505-7.209c2.118-5.054,4.61-9.88,9.681-12.704
		c3.604-2.003,7.133-3.17,10.894-0.083c1.209,0.991,5.375,1.888,6.909,3.421c1.535,1.534,1.914,2.918,4.004,5.704
		c0.963-0.179,2.322-0.435,4.127-0.769c0,1.481,0.045,2.571-0.008,3.657c-0.354,7.108-0.256,14.278-1.188,21.31
		c-2.091,15.865-1.644,31.812-2.29,47.726C52.237,85.143,51.748,87.333,51.401,89.812z M11.434,70.825
		c5.186,4.261,10.584,6.313,16.826,5.346c0.783-0.442,1.449-0.803,2.094-1.185c9.269-5.491,10.404-16.278,2.434-23.444
		c-0.969-0.873-2.169-1.481-3.14-2.354c-1.486-1.328-3.86-2.479-3.966-3.846c-0.267-3.524,1.78-4.526,3.924-5.005
		c2.199-0.488,2.766-0.699,8.611,0.979l3.265-9.231c-3.396-1.815-6.522-2.248-10.987-1.613c-5.938,0.848-12.527,6.043-13.579,11.278
		c-1.257,6.243-0.434,12.009,5.401,15.986c0.91,0.619,1.762,1.396,2.441,2.259c1.581,2.013,1.803,4.067-0.191,6.016
		c-4.166,1.759-7.031-1.405-10.617-2.987C13.119,65.615,12.336,68.027,11.434,70.825z M37.689,3.567
		c-4.262-1.067-6.992,0.65-8.97,3.103c-3.327,4.123-6.355,8.525-7.269,14.512c2.627-0.896,4.836-1.645,7.061-2.4
		C29.773,12.744,32.179,7.505,37.689,3.567z M40.831,15.063c0.963-3.559-0.146-5.945-1.248-8.916
		c-4.022,3.177-7.005,6.184-7.066,11.483L40.831,15.063z M49.127,12.533c-1.862-2.496-1.875-5.331-5.405-6.126
		c0.12,2.369,0.227,4.479,0.353,7.073L49.127,12.533z M58.787,11.11c2.123,1.662,4.014,3.141,5.774,4.524
		c2.697,0.458,5.256,0.893,8.256,1.405C76.015,39.267,79.847,61.42,82.619,84c-9.329,2.043-18.218,3.993-27.396,6
		c0-5.143-0.088-9.965,0.034-14.786c0.063-2.595,0.644-5.179,0.739-7.78c0.57-15.35,1.02-30.708,1.625-46.059
		C57.755,18.05,58.36,14.745,58.787,11.11z"/>
</g>
</svg>
