<?xml version="1.0" encoding="utf-8"?>
<!-- Generator: Adobe Illustrator 16.0.0, SVG Export Plug-In . SVG Version: 6.00 Build 0)  -->
<!DOCTYPE svg PUBLIC "-//W3C//DTD SVG 1.1//EN" "http://www.w3.org/Graphics/SVG/1.1/DTD/svg11.dtd">
<svg version="1.1" id="Layer_1" xmlns="http://www.w3.org/2000/svg" xmlns:xlink="http://www.w3.org/1999/xlink" x="0px" y="0px"
	 width="100px" height="79.531px" viewBox="6 23.375 100 79.531" enable-background="new 6 23.375 100 79.531" xml:space="preserve"
	>
<rect x="-15.495" y="16.511" display="none" fill="#0A263A" width="140.167" height="108.5"/>
<path id="squarespace-logo-symbol_1_" fill="#231F20" d="M100.349,49.496c-7.537-7.536-19.756-7.536-27.291,0L42.354,80.199
	c-1.884,1.883-1.884,4.939,0,6.822c1.886,1.885,4.94,1.885,6.823,0l30.702-30.701c3.768-3.77,9.878-3.77,13.646,0
	c3.768,3.768,3.768,9.877,0,13.644l-30.111,30.112c3.768,3.768,9.875,3.768,13.646,0l23.29-23.289
	C107.884,69.25,107.884,57.033,100.349,49.496z M90.115,59.731c-1.884-1.883-4.94-1.883-6.824,0L52.588,90.432
	c-3.768,3.768-9.878,3.768-13.646,0c-1.884-1.883-4.938-1.883-6.821,0c-1.887,1.885-1.887,4.939,0,6.822
	c7.534,7.537,19.754,7.537,27.291,0l30.702-30.701C91.998,64.67,91.998,61.614,90.115,59.731z M79.879,29.029
	c-7.537-7.538-19.754-7.538-27.291,0L21.886,59.731c-1.883,1.883-1.883,4.939,0,6.822c1.884,1.885,4.938,1.885,6.822,0
	l30.704-30.702c3.768-3.769,9.876-3.769,13.643,0c1.887,1.884,4.94,1.884,6.824,0C81.763,33.966,81.763,30.912,79.879,29.029z
	 M69.645,39.262c-1.884-1.884-4.938-1.884-6.821,0L32.122,69.964c-3.771,3.769-9.878,3.769-13.646,0
	c-3.771-3.767-3.771-9.876,0-13.646l30.111-30.112c-3.768-3.769-9.878-3.769-13.646,0l-23.29,23.289
	c-7.535,7.538-7.535,19.755,0,27.292c7.537,7.537,19.754,7.537,27.291,0l30.702-30.703C71.529,44.201,71.529,41.146,69.645,39.262z"
	/>
</svg>
