<?xml version="1.0" encoding="utf-8"?>
<!-- Generator: Adobe Illustrator 16.0.0, SVG Export Plug-In . SVG Version: 6.00 Build 0)  -->
<!DOCTYPE svg PUBLIC "-//W3C//DTD SVG 1.1//EN" "http://www.w3.org/Graphics/SVG/1.1/DTD/svg11.dtd">
<svg version="1.1" id="Layer_1" xmlns="http://www.w3.org/2000/svg" xmlns:xlink="http://www.w3.org/1999/xlink" x="0px" y="0px"
	 width="99.657px" height="100.234px" viewBox="0 0 99.657 100.234" enable-background="new 0 0 99.657 100.234"
	 xml:space="preserve">
<g>
	<path fill="#217591" d="M99.317,42.894c-1.238-8.958-4.283-17.005-9.898-24.074C81.478,8.838,71.37,2.694,58.827,0.363
		c-0.973-0.18-5.173-0.457-9.068-0.331c-3.304,0.106-6.388,0.596-7.095,0.709C31.312,2.574,21.562,7.275,13.733,15.705
		C2.678,27.611-1.705,41.616,0.593,57.673C2.23,69.117,7.43,78.821,15.941,86.653c12.239,11.254,26.732,15.521,43.108,12.773
		c12.492-2.094,22.701-8.395,30.621-18.278c5.686-7.102,8.395-15.206,9.646-24.23c0.092-0.647,0.338-3.627,0.34-6.685
		C99.661,46.957,99.415,43.59,99.317,42.894z M50.269,97.941C23.651,97.781,2.24,76.385,2.275,49.847
		C2.311,23.258,23.789,1.889,50.289,1.894C76.76,1.897,98.256,23.231,98.282,49.867C98.309,76.416,76.886,97.793,50.269,97.941z
		 M79.165,44.65c-0.551-3.519-2.028-6.635-3.834-9.653c-1.058-1.766-2.099-3.56-2.934-5.441c-1.104-2.496-1.214-5.09,0.116-7.578
		c1.388-2.601,3.594-3.952,6.706-3.984C58.601-0.704,27.21,5.416,14.476,26.119c0.275,0.021,0.534,0.069,0.788,0.062
		c4.301-0.163,8.602-0.312,12.903-0.504c1.25-0.056,2.119,0.488,2.221,1.552c0.122,1.219-0.559,1.96-1.902,2.084l-4.591,0.419
		c5.206,15.481,10.402,30.93,15.628,46.482l0.218-0.432c3.016-9.041,6.03-18.084,9.02-27.134c0.117-0.352,0.086-0.812-0.036-1.169
		c-0.446-1.351-0.956-2.679-1.444-4.017c-1.581-4.339-3.179-8.674-4.732-13.023c-0.208-0.58-0.488-0.796-1.114-0.819
		c-1.157-0.04-2.312-0.204-3.472-0.312c-1.26-0.118-1.937-0.825-1.844-1.952c0.091-1.128,0.966-1.789,2.216-1.677
		c7.406,0.658,14.813,0.653,22.219,0.008c1.303-0.114,2.143,0.481,2.254,1.623c0.106,1.107-0.638,1.88-1.922,2.002
		c-1.5,0.137-3,0.273-4.597,0.424c5.155,15.341,10.306,30.654,15.504,46.123l0.181-0.44c2.134-7.094,4.295-14.177,6.385-21.286
		C79.26,51.042,79.668,47.892,79.165,44.65z M38.129,91.269c8.916,2.551,17.64,2.305,26.364-0.644
		c-4.484-12.288-8.928-24.449-13.451-36.854C46.69,66.412,42.43,78.79,38.129,91.269z M10.71,33.732
		c-4.652,11-4.886,22.092-0.163,33.397c4.107,9.834,11.077,16.812,20.516,21.654l0.22,0.238
		c-6.776-18.558-13.549-37.291-20.324-55.291L10.71,33.732z M72.077,87.037c21.729-12.694,26.291-39.658,16.207-57.288
		c0,2.52,0.143,4.979-0.031,7.417c-0.295,4.117-1.642,7.989-3.008,11.865c-4.189,11.916-8.287,23.866-12.416,35.804L72.077,87.037z"
		/>
</g>
</svg>
